<svg width="251" height="116" viewBox="0 0 251 116" fill="none" xmlns="http://www.w3.org/2000/svg">
<path fill-rule="evenodd" clip-rule="evenodd" d="M146.378 2.85938V67.6731L146.378 67.8156C146.417 72.4951 148.396 74.8348 152.316 74.8348C153.247 74.8348 154.275 74.6956 155.401 74.4171C156.375 74.1761 157.276 73.831 158.104 73.3816L158.111 73.3269L159.035 72.8159L159.035 2.85938H177.664V67.6731L177.665 67.8156C177.704 72.4951 179.683 74.8348 183.602 74.8348C184.534 74.8348 185.562 74.6956 186.688 74.4171C187.397 74.2415 188.068 74.0107 188.7 73.7245L188.853 73.3269L188.95 73.2929C188.502 72.3823 188.097 71.442 187.735 70.4721C186.3 66.6243 185.582 62.6015 185.582 58.4038C185.582 54.2061 186.3 50.1833 187.735 46.3355C189.171 42.4876 191.286 39.1061 194.079 36.1911C196.873 33.276 200.307 30.944 204.381 29.1949C208.455 27.4459 213.092 26.5714 218.291 26.5714C223.49 26.5714 228.108 27.4459 232.143 29.1949C236.178 30.944 239.593 33.276 242.386 36.1911C245.18 39.1061 247.314 42.4876 248.788 46.3355C250.263 50.1833 251 54.2061 251 58.4038C251 62.6015 250.282 66.6243 248.847 70.4721C247.411 74.32 245.296 77.7015 242.503 80.6165C239.709 83.5316 236.275 85.8442 232.201 87.5544C228.127 89.2645 223.49 90.1196 218.291 90.1196C213.092 90.1196 208.455 89.2645 204.381 87.5544C202.532 86.7784 200.816 85.8785 199.231 84.8546L192.181 87.2653L192.218 87.4872L191.999 87.591C189.722 88.6557 187.117 89.4965 184.185 90.1132C181.157 90.7498 178.324 91.0681 175.685 91.0681C170.329 91.0681 166.215 89.6357 163.343 86.771C163.193 86.6215 163.047 86.4684 162.905 86.3119L160.915 87.3918L160.932 87.4872L160.712 87.591C158.435 88.6557 155.83 89.4965 152.898 90.1132C149.87 90.7498 147.037 91.0681 144.398 91.0681C139.32 91.0681 135.358 89.7802 132.512 87.2044L124.392 89.3801L124.343 89.2787C123.273 89.4872 122.278 89.6314 121.357 89.7115C120.017 89.8281 118.794 89.8864 117.69 89.8864C114.141 89.8864 111.46 89.2062 109.646 87.8459C107.867 86.5112 106.733 84.634 106.243 82.2142L106.216 82.074L105.861 79.2756L105.713 79.4622C102.983 82.8692 99.7403 85.4888 95.9838 87.3211C92.1591 89.1868 88.1175 90.1196 83.8591 90.1196C80.7835 90.1196 77.9248 89.6338 75.283 88.6621C72.6412 87.6904 70.374 86.33 68.4813 84.581C66.5887 82.832 65.0903 80.772 63.9863 78.4011C63.2103 76.7346 62.707 74.9626 62.4764 73.0849C61.1327 75.8699 59.3893 78.3805 57.2463 80.6165C54.4526 83.5316 51.0188 85.8442 46.9447 87.5544C42.8706 89.2645 38.2339 90.1196 33.0346 90.1196C27.8353 90.1196 23.1986 89.2645 19.1245 87.5544C18.9904 87.4981 18.857 87.4411 18.7243 87.3835L18.7243 114.772H0V27.7426H16.2668L16.2666 30.574C17.1814 30.0798 18.134 29.6202 19.1245 29.1949C23.1986 27.4459 27.8353 26.5714 33.0346 26.5714C38.2339 26.5714 42.8512 27.4459 46.8865 29.1949C50.9218 30.944 54.3362 33.276 57.1299 36.1911C59.9236 39.1061 62.0576 42.4876 63.532 46.3355C65.0065 50.1833 65.7437 54.2061 65.7437 58.4038C65.7437 58.9635 65.7309 59.52 65.7054 60.0735C66.8197 58.5398 68.1788 57.1671 69.7825 55.9552C72.1483 54.1672 74.9479 52.768 78.1811 51.7575C81.4144 50.7469 85.0025 50.2416 88.9456 50.2416C91.548 50.2416 94.0715 50.4554 96.5162 50.883C98.8793 51.2962 100.948 51.9093 102.721 52.7221L102.904 52.8069V50.0084L102.903 49.7973C102.821 42.8642 98.6809 39.3976 90.4833 39.3976C87.0924 39.3976 83.8591 39.9612 80.7835 41.0884C77.7849 42.1873 74.6363 43.8221 71.3377 45.9925L71.0837 46.1606L65.524 34.5003L65.7977 34.3251C69.8141 31.7696 73.9814 29.8458 78.2994 28.5536C82.7156 27.2321 87.4078 26.5714 92.376 26.5714C101.76 26.5714 109.016 28.748 114.141 33.1011C119.216 37.4107 121.779 43.7012 121.83 51.9726L121.83 52.2239V67.9652L121.831 68.0944C121.844 69.8911 122.14 71.15 122.717 71.8714C123.241 72.5255 124.121 72.951 125.357 73.1476L125.575 72.9224H127.748L127.748 2.85938H146.378ZM92.7629 59.7682C89.4314 59.7682 86.6867 60.593 84.5288 62.2425C82.3709 63.892 81.292 66.0364 81.292 68.6757C81.292 71.0675 82.1249 73.0263 83.7906 74.5521C85.4563 76.078 87.5764 76.8409 90.1507 76.8409C92.1193 76.8409 94.0311 76.4697 95.8862 75.7274C97.7412 74.9851 99.2744 73.9954 100.486 72.7583C102.194 71.3017 103.065 69.7658 103.097 68.1504L103.098 68.0571V61.8714L102.859 61.7735C101.335 61.1604 99.6927 60.6775 97.9305 60.3249C96.0754 59.9538 94.3529 59.7682 92.7629 59.7682ZM34.5289 41.7471C32.3623 41.7471 30.3473 42.1394 28.484 42.924C26.6208 43.7087 25.0175 44.8071 23.6742 46.2195C22.3309 47.6318 21.2693 49.3384 20.4893 51.3392C19.7093 53.34 19.3193 55.5174 19.3193 57.8713C19.3193 62.736 20.7493 66.6395 23.6092 69.5819C26.4691 72.5242 30.109 73.9954 34.5289 73.9954C36.6954 73.9954 38.6887 73.6031 40.5087 72.8185C42.3286 72.0339 43.9102 70.9354 45.2535 69.523C46.5968 68.1107 47.6584 66.4041 48.4384 64.4033C49.2184 62.4025 49.6084 60.2252 49.6084 57.8713C49.6084 53.0065 48.1784 49.103 45.3185 46.1606C42.4586 43.2183 38.862 41.7471 34.5289 41.7471ZM219.77 41.7471C217.871 41.7471 216.105 42.1394 214.472 42.924C212.839 43.7087 211.434 44.8071 210.257 46.2195C209.079 47.6318 208.149 49.3384 207.465 51.3392C206.782 53.34 206.44 55.5174 206.44 57.8713C206.44 62.736 207.693 66.6395 210.2 69.5819C212.706 72.5242 215.896 73.9954 219.77 73.9954C221.669 73.9954 223.416 73.6031 225.011 72.8185C226.606 72.0339 227.992 70.9354 229.17 69.523C230.347 68.1107 231.277 66.4041 231.961 64.4033C232.645 62.4025 232.986 60.2252 232.986 57.8713C232.986 53.0065 231.733 49.103 229.227 46.1606C226.72 43.2183 223.568 41.7471 219.77 41.7471Z" fill="white"/>
</svg>
